# File created by Blade
# Date/Time:  Mon Sep 22 21:09:19 2014
# Frame Rate: 120.000 fps
#------------------------------------------------------
:FULLY-SPECIFIED
:DEGREES
3160
root 5.455377 35.161085 -10.115272 42.269772 6.596444 -50.557133
Spine -34.366987 -9.096497 46.076418
Head 2.872779 -19.633307 35.420948
LeftShoulder 13.674269 23.303920 47.134876
LeftArm 95.914332 26.460809 -43.341115
LeftForeArm -51.839213 0.000000 55.346197
LeftHand -7.623013 -0.000000 -20.045391
LeftHandThumb1 -26.253704 0.000000 33.147579
RightShoulder -20.541984 -45.975478 -3.201094
RightArm 56.939782 -9.857678 60.860050
RightForeArm 56.047483 -0.000000 91.627775
RightHand -1.538403 -0.000000 4.514564
RightHandThumb1 -24.326973 -0.000000 -32.862282
LeftUpLeg -50.409743 37.840063 33.100329
LeftLeg 22.112623 -0.000000 -0.000000
LeftFoot -11.891160 -4.919723 -10.117765
LeftToeBase 5.763393 -0.000000 -0.000000
RightUpLeg -141.359415 -58.994147 22.251956
RightLeg 94.286076 -0.000000 -0.000000
RightFoot 42.410403 -10.295133 -2.062739
RightToeBase 48.549823 -0.000000 -0.000000
3161
root 5.448339 35.189088 -10.135000 42.398089 6.628826 -50.577845
Spine -34.354969 -9.200457 46.031527
Head 2.620561 -19.624853 35.703554
LeftShoulder 13.742797 23.260669 47.058590
LeftArm 95.896178 26.490149 -43.394846
LeftForeArm -51.894171 0.000000 55.127836
LeftHand -7.560887 -0.000000 -20.206332
LeftHandThumb1 -26.253704 0.000000 33.147579
RightShoulder -20.539873 -45.979928 -3.277412
RightArm 56.910547 -9.900589 60.892022
RightForeArm 56.009723 -0.000000 91.606481
RightHand -1.483957 -0.000000 4.454991
RightHandThumb1 -24.326973 -0.000000 -32.862282
LeftUpLeg -50.440842 38.096311 33.049767
LeftLeg 21.816845 -0.000000 -0.000000
LeftFoot -11.515723 -5.609366 -10.864447
LeftToeBase 5.741628 -0.000000 -0.000000
RightUpLeg -141.167055 -59.097541 22.051858
RightLeg 93.833584 -0.000000 -0.000000
RightFoot 42.446809 -10.338304 -2.037604
RightToeBase 48.396776 -0.000000 -0.000000
3162
root 5.442323 35.213607 -10.154161 42.510854 6.702179 -50.612086
Spine -34.340948 -9.318491 46.041994
Head 2.371300 -19.611733 35.924557
LeftShoulder 13.789777 23.038735 47.000860
LeftArm 95.759924 26.644319 -43.521497
LeftForeArm -51.908263 -0.000000 54.935071
LeftHand -7.408649 0.000000 -20.375768
LeftHandThumb1 -26.253704 0.000000 33.147579
RightShoulder -20.596112 -46.132813 -3.351085
RightArm 57.038187 -9.912190 60.924953
RightForeArm 55.852714 -0.000000 91.546854
RightHand -1.440888 -0.000000 4.431257
RightHandThumb1 -24.326973 -0.000000 -32.862282
LeftUpLeg -50.500592 38.273868 33.035219
LeftLeg 21.560441 -0.000000 -0.000000
LeftFoot -11.104990 -6.080546 -11.456192
LeftToeBase 5.172658 -0.000000 -0.000000
RightUpLeg -140.972782 -59.238771 21.895757
RightLeg 93.360094 -0.000000 -0.000000
RightFoot 42.422780 -10.280602 -2.017875
RightToeBase 48.387071 -0.000000 -0.000000
3163
root 5.437860 35.235263 -10.171857 42.582096 6.754301 -50.625202
Spine -34.280521 -9.468991 46.025680
Head 2.064763 -19.500722 36.176041
LeftShoulder 13.816406 22.952300 46.968728
LeftArm 95.762181 26.700810 -43.559018
LeftForeArm -51.906724 -0.000000 54.760198
LeftHand -7.296870 -0.000000 -20.455464
LeftHandThumb1 -26.253704 0.000000 33.147579
RightShoulder -20.602061 -46.102002 -3.428699
RightArm 57.021218 -9.931402 60.865606
RightForeArm 55.705405 -0.000000 91.536983
RightHand -1.549851 -0.000000 4.460466
RightHandThumb1 -24.326973 -0.000000 -32.862282
LeftUpLeg -50.505187 38.384913 33.012497
LeftLeg 21.287061 -0.000000 -0.000000
LeftFoot -10.836693 -6.351712 -11.722966
LeftToeBase 5.150411 -0.000000 -0.000000
RightUpLeg -140.708037 -59.380657 21.666610
RightLeg 92.866233 -0.000000 -0.000000
RightFoot 42.362651 -10.354320 -1.907027
RightToeBase 48.506556 -0.000000 -0.000000
3164
root 5.431960 35.253325 -10.192448 42.649923 6.797406 -50.641725
Spine -34.218010 -9.603787 46.000493
Head 1.785883 -19.392442 36.368667
LeftShoulder 13.874775 22.861963 46.963852
LeftArm 95.744056 26.711074 -43.559828
LeftForeArm -51.919288 -0.000000 54.651868
LeftHand -7.253443 -0.000000 -20.520230
LeftHandThumb1 -26.253704 0.000000 33.147579
RightShoulder -20.543539 -45.926786 -3.643275
RightArm 56.872716 -10.083452 60.878898
RightForeArm 55.594784 0.000000 91.484054
RightHand -1.528641 -0.000000 4.401886
RightHandThumb1 -24.326973 -0.000000 -32.862282
LeftUpLeg -50.503653 38.433681 33.013746
LeftLeg 21.042533 -0.000000 -0.000000
LeftFoot -10.648744 -6.401684 -11.909900
LeftToeBase 5.243257 -0.000000 -0.000000
RightUpLeg -140.482742 -59.499752 21.446205
RightLeg 92.388390 -0.000000 -0.000000
RightFoot 42.333068 -10.402119 -1.832254
RightToeBase 48.542248 -0.000000 -0.000000
3165
root 5.427747 35.265509 -10.211296 42.720967 6.804632 -50.668489
Spine -34.116949 -9.706632 45.965878
Head 1.432267 -19.274879 36.572984
LeftShoulder 13.859084 22.736233 46.954799
LeftArm 95.754570 26.765294 -43.512846
LeftForeArm -51.928310 -0.000000 54.563917
LeftHand -7.135731 -0.000000 -20.600337
LeftHandThumb1 -26.253704 0.000000 33.147579
RightShoulder -20.525155 -45.848091 -3.744316
RightArm 56.821529 -10.099329 60.734076
RightForeArm 55.624245 0.000000 91.488066
RightHand -1.578571 -0.000000 4.441249
RightHandThumb1 -24.326973 -0.000000 -32.862282
LeftUpLeg -50.502091 38.496294 32.965007
LeftLeg 20.798460 -0.000000 -0.000000
LeftFoot -10.564533 -6.325491 -11.913869
LeftToeBase 5.215001 -0.000000 -0.000000
RightUpLeg -140.310176 -59.563518 21.270013
RightLeg 91.884689 -0.000000 -0.000000
RightFoot 42.355479 -10.483404 -1.843730
RightToeBase 48.477798 -0.000000 -0.000000
3166
root 5.423461 35.271789 -10.228281 42.788431 6.789754 -50.697846
Spine -34.015520 -9.778802 45.928880
Head 1.117498 -19.173354 36.702476
LeftShoulder 13.847038 22.655060 46.965436
LeftArm 95.783520 26.793438 -43.467429
LeftForeArm -51.942397 0.000000 54.511404
LeftHand -7.113728 -0.000000 -20.674320
LeftHandThumb1 -26.253704 0.000000 33.147579
RightShoulder -20.488476 -45.759314 -3.889736
RightArm 56.726162 -10.151443 60.602570
RightForeArm 55.596361 -0.000000 91.501645
RightHand -1.559187 0.000000 4.411085
RightHandThumb1 -24.326973 -0.000000 -32.862282
LeftUpLeg -50.451593 38.523828 32.912201
LeftLeg 20.502739 -0.000000 -0.000000
LeftFoot -10.559871 -6.065321 -11.846283
LeftToeBase 5.232772 -0.000000 -0.000000
RightUpLeg -140.146044 -59.634084 21.100163
RightLeg 91.392088 -0.000000 -0.000000
RightFoot 42.285297 -10.408215 -1.776995
RightToeBase 48.515400 -0.000000 -0.000000
3167
root 5.418180 35.272486 -10.240037 42.842485 6.755893 -50.733739
Spine -33.914600 -9.847050 45.906253
Head 0.846500 -19.041144 36.745127
LeftShoulder 13.832687 22.582652 46.970593
LeftArm 95.775985 26.836757 -43.451660
LeftForeArm -51.925285 -0.000000 54.509225
LeftHand -7.100841 0.000000 -20.713137
LeftHandThumb1 -26.253704 0.000000 33.147579
RightShoulder -20.447511 -45.722593 -4.058061
RightArm 56.652866 -10.220185 60.485113
RightForeArm 55.661765 0.000000 91.528145
RightHand -1.474874 -0.000000 4.301231
RightHandThumb1 -24.326973 -0.000000 -32.862282
LeftUpLeg -50.399665 38.574515 32.813755
LeftLeg 20.223745 -0.000000 -0.000000
LeftFoot -10.678618 -5.704228 -11.686040
LeftToeBase 5.455053 -0.000000 -0.000000
RightUpLeg -139.998269 -59.675224 20.950152
RightLeg 90.903205 -0.000000 -0.000000
RightFoot 42.233721 -10.411550 -1.748864
RightToeBase 48.496605 -0.000000 -0.000000
